<?xml version="1.0" encoding="UTF-8" standalone="no"?>
<!DOCTYPE svg PUBLIC "-//W3C//DTD SVG 1.1//EN" "http://www.w3.org/Graphics/SVG/1.1/DTD/svg11.dtd">
<svg width="100%" height="100%" viewBox="0 0 576 512" version="1.1" xmlns="http://www.w3.org/2000/svg" xmlns:xlink="http://www.w3.org/1999/xlink" xml:space="preserve" xmlns:serif="http://www.serif.com/" style="fill-rule:evenodd;clip-rule:evenodd;stroke-linejoin:round;stroke-miterlimit:2;">
    <path d="M298.06,224L448,277.55L448,496C448,504.777 440.777,512 432,512L368,512C359.223,512 352,504.777 352,496L352,384L192,384L192,496C192,504.777 184.777,512 176,512L112,512C103.223,512 96,504.777 96,496L96,282.09C58.84,268.84 32,233.66 32,192C32,174.445 46.445,160 64,160C81.555,160 96,174.445 96,192C96.033,209.542 110.458,223.967 128,224L298.06,224ZM544,112L544,144C544,179.109 515.109,208 480,208L448,208L448,243.58L320,197.87L320,48C320,33.75 337.22,26.61 347.31,36.69L374.59,64L428.22,64C439.13,64 451.97,71.92 456.84,81.69L464,96L528,96C536.777,96 544,103.223 544,112ZM432,112C432,103.223 424.777,96 416,96C407.223,96 400,103.223 400,112C400,120.777 407.223,128 416,128C424.777,128 432,120.777 432,112Z" style="fill:rgb(0,101,252);fill-rule:nonzero;"/>
</svg>
