<?xml version="1.0" encoding="UTF-8" standalone="no"?>
<!DOCTYPE svg PUBLIC "-//W3C//DTD SVG 1.1//EN" "http://www.w3.org/Graphics/SVG/1.1/DTD/svg11.dtd">
<svg width="100%" height="100%" viewBox="0 0 384 512" version="1.1" xmlns="http://www.w3.org/2000/svg" xmlns:xlink="http://www.w3.org/1999/xlink" xml:space="preserve" xmlns:serif="http://www.serif.com/" style="fill-rule:evenodd;clip-rule:evenodd;stroke-linejoin:round;stroke-miterlimit:2;">
    <path d="M120,72C120,32.235 152.235,0 192,0C231.765,0 264,32.235 264,72C264,111.764 231.765,144 192,144C152.235,144 120,111.764 120,72ZM374.627,73.373C362.131,60.876 341.869,60.876 329.373,73.373L242.745,160L141.254,160L54.627,73.373C42.131,60.876 21.869,60.876 9.373,73.373C-3.124,85.87 -3.124,106.131 9.373,118.628L104,213.254L104,480C104,497.673 118.327,512 136,512L152,512C169.673,512 184,497.673 184,480L184,368L200,368L200,480C200,497.673 214.327,512 232,512L248,512C265.673,512 280,497.673 280,480L280,213.254L374.627,118.627C387.124,106.13 387.124,85.87 374.627,73.373Z" style="fill:rgb(0,101,252);fill-rule:nonzero;"/>
</svg>
